<?xml version="1.0" encoding="UTF-8"?>
<svg width="40px" height="40px" viewBox="0 0 40 40" version="1.1" xmlns="http://www.w3.org/2000/svg" xmlns:xlink="http://www.w3.org/1999/xlink">
    <!-- Generator: sketchtool 56.2 (101010) - https://sketch.com -->
    <title>7D813685-E5E1-41CD-A488-9F4C5DCB7F6A@1.00x</title>
    <desc>Created with sketchtool.</desc>
    <g id="Page-1" stroke="none" stroke-width="1" fill="none" fill-rule="evenodd">
        <g id="School-Finder-mod-2" transform="translate(-767.000000, -2376.000000)">
            <g id="Schools-Module" transform="translate(0.000000, 1342.000000)">
                <g id="school-card-braddock-copy" transform="translate(737.000000, 762.000000)">
                    <g id="faces" transform="translate(30.000000, 272.000000)">
                        <g id="1-selected">
                            <path d="M39.1666667,20 C39.1666667,30.585 30.585,39.1666667 20,39.1666667 C9.41333333,39.1666667 0.833333333,30.585 0.833333333,20 C0.833333333,9.41333333 9.41333333,0.833333333 20,0.833333333 C30.585,0.833333333 39.1666667,9.41333333 39.1666667,20 L39.1666667,20 Z" id="Stroke-54" fill="#2A67FF"></path>
                            <path d="M7.5,34.5051667 C7.5,17.5401667 32.5,17.2451667 32.5,34.5051667" id="Stroke-55" stroke="#FFFFFF" stroke-width="2" stroke-linecap="round" stroke-linejoin="round"></path>
                            <path d="M15.8333333,13.3333333 C15.8333333,17.7433333 9.16666667,17.7383333 9.16666667,13.3333333" id="Stroke-56" stroke="#FFFFFF" stroke-width="2" stroke-linecap="round" stroke-linejoin="round"></path>
                            <path d="M24.1666667,13.3333333 C24.1666667,17.7433333 30.8333333,17.7383333 30.8333333,13.3333333" id="Stroke-57" stroke="#FFFFFF" stroke-width="2" stroke-linecap="round" stroke-linejoin="round"></path>
                        </g>
                    </g>
                </g>
            </g>
        </g>
    </g>
</svg>