<svg height="105" viewBox="0 0 298 105" width="298" xmlns="http://www.w3.org/2000/svg"><g fill="none" fill-rule="evenodd" transform="translate(0 -6)"><text fill="#082d46" font-family="Roboto-Black, Roboto" font-size="40" font-weight="700"><tspan x="1" y="54">UNLIKELY</tspan></text><text fill="#2a67ff" font-family="Roboto-Light, Roboto" font-size="16" font-weight="300"><tspan x="1" y="17">ODDS OF GETTING IN</tspan></text><g stroke-linecap="round" stroke-linejoin="round"><g stroke="#2a67ff" transform="translate(0 71)"><path d="m39.1666667 20c0 10.585-8.5816667 19.1666667-19.1666667 19.1666667-10.58666667 0-19.16666667-8.5816667-19.16666667-19.1666667 0-10.58666667 8.58-19.16666667 19.16666667-19.16666667 10.585 0 19.1666667 8.58 19.1666667 19.16666667z" fill="#fff"/><path d="m7.5 34.5051667c0-16.965 25-17.26 25 0"/><path d="m15.8333333 13.3333333c0 4.41-6.66666663 4.405-6.66666663 0"/><path d="m24.1666667 13.3333333c0 4.41 6.6666666 4.405 6.6666666 0"/></g><g stroke="#2a67ff" transform="translate(49 71)"><path d="m39.1666667 20c0 10.585-8.58 19.1666667-19.1666667 19.1666667-10.58666667 0-19.16666667-8.5816667-19.16666667-19.1666667 0-10.58666667 8.58-19.16666667 19.16666667-19.16666667 10.5866667 0 19.1666667 8.58 19.1666667 19.16666667z" fill="#fff"/><path d="m21.6666667 30.8333333c2.24-3.3716666 6.0716666-5.5933333 10.42-5.5933333"/><path d="m16.6666667 14.1666667c0 1.38-1.12 2.5-2.5 2.5s-2.5-1.12-2.5-2.5 1.12-2.5 2.5-2.5 2.5 1.12 2.5 2.5z"/><path d="m23.3333333 14.1666667c0 1.38 1.12 2.5 2.5 2.5s2.5-1.12 2.5-2.5-1.12-2.5-2.5-2.5-2.5 1.12-2.5 2.5z"/></g><g transform="translate(49 71)"><path d="m39.1666667 20c0 10.585-8.58 19.1666667-19.1666667 19.1666667-10.58666667 0-19.16666667-8.5816667-19.16666667-19.1666667 0-10.58666667 8.58-19.16666667 19.16666667-19.16666667 10.5866667 0 19.1666667 8.58 19.1666667 19.16666667z" fill="#2a67ff" stroke="#2a67ff"/><g stroke="#fff" stroke-width="2"><path d="m21.6666667 30.8333333c2.24-3.3716666 6.0716666-5.5933333 10.42-5.5933333"/><path d="m16.6666667 14.1666667c0 1.38-1.12 2.5-2.5 2.5s-2.5-1.12-2.5-2.5 1.12-2.5 2.5-2.5 2.5 1.12 2.5 2.5z"/><path d="m23.3333333 14.1666667c0 1.38 1.12 2.5 2.5 2.5s2.5-1.12 2.5-2.5-1.12-2.5-2.5-2.5-2.5 1.12-2.5 2.5z"/></g></g><g stroke="#2a67ff"><g transform="translate(98 71)"><path d="m39.1666667 20c0 10.5866667-8.5816667 19.1666667-19.1666667 19.1666667-10.58666667 0-19.16666667-8.58-19.16666667-19.1666667 0-10.58666667 8.58-19.16666667 19.16666667-19.16666667 10.585 0 19.1666667 8.58 19.1666667 19.16666667z" fill="#fff"/><path d="m16.25 14.1666667c0 1.38-1.12 2.5-2.5 2.5-1.3816667 0-2.5-1.12-2.5-2.5s1.1183333-2.5 2.5-2.5c1.38 0 2.5 1.12 2.5 2.5z"/><path d="m22.9166667 14.1666667c0 1.38 1.1183333 2.5 2.5 2.5 1.38 0 2.5-1.12 2.5-2.5s-1.12-2.5-2.5-2.5c-1.3816667 0-2.5 1.12-2.5 2.5z"/><path d="m8.33333333 27.5h23.33333337"/></g><g transform="translate(147 71)"><path d="m39.1666667 20c0 10.5866667-8.5816667 19.1666667-19.1666667 19.1666667-10.58666667 0-19.16666667-8.58-19.16666667-19.1666667 0-10.58666667 8.58-19.16666667 19.16666667-19.16666667 10.585 0 19.1666667 8.58 19.1666667 19.16666667z" fill="#fff"/><path d="m16.6666667 14.1666667c0 1.38-1.12 2.5-2.5 2.5-1.3816667 0-2.5-1.12-2.5-2.5s1.1183333-2.5 2.5-2.5c1.38 0 2.5 1.12 2.5 2.5z"/><path d="m23.3333333 14.1666667c0 1.38 1.1183334 2.5 2.5 2.5 1.38 0 2.5-1.12 2.5-2.5s-1.12-2.5-2.5-2.5c-1.3816666 0-2.5 1.12-2.5 2.5z"/><path d="m30.4191667 26.0741667c-2.2383334 3.3733333-6.0716667 5.5933333-10.4183334 5.5933333"/></g><g transform="translate(196 71)"><path d="m39.1666667 20c0 10.585-8.5816667 19.1666667-19.1666667 19.1666667-10.58666667 0-19.16666667-8.5816667-19.16666667-19.1666667 0-10.58666667 8.58-19.16666667 19.16666667-19.16666667 10.585 0 19.1666667 8.58 19.1666667 19.16666667z" fill="#fff"/><path d="m32.5 22.5c0 6.0716667-5.5966667 11.6666667-12.5 11.6666667s-12.5-5.595-12.5-11.6666667z"/><path d="m15 12.5c0 1.38-1.12 2.5-2.5 2.5-1.3816667 0-2.5-1.12-2.5-2.5s1.1183333-2.5 2.5-2.5c1.38 0 2.5 1.12 2.5 2.5z"/><path d="m25 12.5c0 1.38 1.1183333 2.5 2.5 2.5 1.38 0 2.5-1.12 2.5-2.5s-1.12-2.5-2.5-2.5c-1.3816667 0-2.5 1.12-2.5 2.5z"/></g></g></g></g></svg>