<?xml version="1.0" encoding="UTF-8"?>
<svg width="40px" height="40px" viewBox="0 0 40 40" version="1.1" xmlns="http://www.w3.org/2000/svg" xmlns:xlink="http://www.w3.org/1999/xlink">
    <!-- Generator: sketchtool 56.2 (101010) - https://sketch.com -->
    <title>2D7C3766-4E1F-428B-AF08-7A1F7803B8EC@1.00x</title>
    <desc>Created with sketchtool.</desc>
    <g id="Page-1" stroke="none" stroke-width="1" fill="none" fill-rule="evenodd" stroke-linecap="round" stroke-linejoin="round">
        <g id="School-Finder-mod-2" transform="translate(-263.000000, -1987.000000)" stroke="#2A67FF">
            <g id="Schools-Module" transform="translate(0.000000, 1342.000000)">
                <g id="school-card-wonderland" transform="translate(135.000000, 373.000000)">
                    <g id="faces" transform="translate(30.000000, 272.000000)">
                        <g id="3" transform="translate(98.000000, 0.000000)">
                            <path d="M39.1666667,20 C39.1666667,30.5866667 30.585,39.1666667 20,39.1666667 C9.41333333,39.1666667 0.833333333,30.5866667 0.833333333,20 C0.833333333,9.41333333 9.41333333,0.833333333 20,0.833333333 C30.585,0.833333333 39.1666667,9.41333333 39.1666667,20 L39.1666667,20 Z" id="Stroke-2227" fill="#FFFFFF"></path>
                            <path d="M16.25,14.1666667 C16.25,15.5466667 15.13,16.6666667 13.75,16.6666667 C12.3683333,16.6666667 11.25,15.5466667 11.25,14.1666667 C11.25,12.7866667 12.3683333,11.6666667 13.75,11.6666667 C15.13,11.6666667 16.25,12.7866667 16.25,14.1666667 L16.25,14.1666667 Z" id="Stroke-2225"></path>
                            <path d="M22.9166667,14.1666667 C22.9166667,15.5466667 24.035,16.6666667 25.4166667,16.6666667 C26.7966667,16.6666667 27.9166667,15.5466667 27.9166667,14.1666667 C27.9166667,12.7866667 26.7966667,11.6666667 25.4166667,11.6666667 C24.035,11.6666667 22.9166667,12.7866667 22.9166667,14.1666667 L22.9166667,14.1666667 Z" id="Stroke-2226"></path>
                            <path d="M8.33333333,27.5 L31.6666667,27.5" id="Stroke-2228"></path>
                        </g>
                    </g>
                </g>
            </g>
        </g>
    </g>
</svg>