<?xml version="1.0" encoding="UTF-8"?>
<svg width="40px" height="40px" viewBox="0 0 40 40" version="1.1" xmlns="http://www.w3.org/2000/svg" xmlns:xlink="http://www.w3.org/1999/xlink">
    <!-- Generator: sketchtool 56.2 (101010) - https://sketch.com -->
    <title>B0870CC9-7EC3-4B58-9390-6D7326C2636D@1.00x</title>
    <desc>Created with sketchtool.</desc>
    <g id="Page-1" stroke="none" stroke-width="1" fill="none" fill-rule="evenodd" stroke-linecap="round" stroke-linejoin="round">
        <g id="School-Finder-mod-2" transform="translate(-312.000000, -1987.000000)">
            <g id="Schools-Module" transform="translate(0.000000, 1342.000000)">
                <g id="school-card-wonderland" transform="translate(135.000000, 373.000000)">
                    <g id="faces" transform="translate(30.000000, 272.000000)">
                        <g id="4-selected" transform="translate(147.000000, 0.000000)">
                            <path d="M39.1666667,20 C39.1666667,30.5866667 30.585,39.1666667 20,39.1666667 C9.41333333,39.1666667 0.833333333,30.5866667 0.833333333,20 C0.833333333,9.41333333 9.41333333,0.833333333 20,0.833333333 C30.585,0.833333333 39.1666667,9.41333333 39.1666667,20 L39.1666667,20 Z" id="Stroke-2232" stroke="#2A67FF" fill="#2A67FF"></path>
                            <path d="M16.6666667,14.1666667 C16.6666667,15.5466667 15.5466667,16.6666667 14.1666667,16.6666667 C12.785,16.6666667 11.6666667,15.5466667 11.6666667,14.1666667 C11.6666667,12.7866667 12.785,11.6666667 14.1666667,11.6666667 C15.5466667,11.6666667 16.6666667,12.7866667 16.6666667,14.1666667 L16.6666667,14.1666667 Z" id="Stroke-2229" stroke="#FFFFFF" stroke-width="2"></path>
                            <path d="M23.3333333,14.1666667 C23.3333333,15.5466667 24.4516667,16.6666667 25.8333333,16.6666667 C27.2133333,16.6666667 28.3333333,15.5466667 28.3333333,14.1666667 C28.3333333,12.7866667 27.2133333,11.6666667 25.8333333,11.6666667 C24.4516667,11.6666667 23.3333333,12.7866667 23.3333333,14.1666667 L23.3333333,14.1666667 Z" id="Stroke-2230" stroke="#FFFFFF" stroke-width="2"></path>
                            <path d="M30.4191667,26.0741667 C28.1808333,29.4475 24.3475,31.6675 20.0008333,31.6675" id="Stroke-2231" stroke="#FFFFFF" stroke-width="2"></path>
                        </g>
                    </g>
                </g>
            </g>
        </g>
    </g>
</svg>