<?xml version="1.0" encoding="UTF-8"?>
<svg width="40px" height="40px" viewBox="0 0 40 40" version="1.1" xmlns="http://www.w3.org/2000/svg" xmlns:xlink="http://www.w3.org/1999/xlink">
    <!-- Generator: sketchtool 56.2 (101010) - https://sketch.com -->
    <title>5DE98744-7512-4C19-88A3-05F75BDB66B0@1.00x</title>
    <desc>Created with sketchtool.</desc>
    <g id="Page-1" stroke="none" stroke-width="1" fill="none" fill-rule="evenodd" stroke-linecap="round" stroke-linejoin="round">
        <g id="School-Finder-mod-2" transform="translate(-361.000000, -1987.000000)" stroke="#2A67FF">
            <g id="Schools-Module" transform="translate(0.000000, 1342.000000)">
                <g id="school-card-wonderland" transform="translate(135.000000, 373.000000)">
                    <g id="faces" transform="translate(30.000000, 272.000000)">
                        <g id="5" transform="translate(196.000000, 0.000000)">
                            <path d="M39.1666667,20 C39.1666667,30.585 30.585,39.1666667 20,39.1666667 C9.41333333,39.1666667 0.833333333,30.585 0.833333333,20 C0.833333333,9.41333333 9.41333333,0.833333333 20,0.833333333 C30.585,0.833333333 39.1666667,9.41333333 39.1666667,20 L39.1666667,20 Z" id="Stroke-6392" fill="#FFFFFF"></path>
                            <path d="M32.5,22.5 C32.5,28.5716667 26.9033333,34.1666667 20,34.1666667 C13.0966667,34.1666667 7.5,28.5716667 7.5,22.5 L32.5,22.5 L32.5,22.5 Z" id="Stroke-6393"></path>
                            <path d="M15,12.5 C15,13.88 13.88,15 12.5,15 C11.1183333,15 10,13.88 10,12.5 C10,11.12 11.1183333,10 12.5,10 C13.88,10 15,11.12 15,12.5 L15,12.5 Z" id="Stroke-6394"></path>
                            <path d="M25,12.5 C25,13.88 26.1183333,15 27.5,15 C28.88,15 30,13.88 30,12.5 C30,11.12 28.88,10 27.5,10 C26.1183333,10 25,11.12 25,12.5 L25,12.5 Z" id="Stroke-6395"></path>
                        </g>
                    </g>
                </g>
            </g>
        </g>
    </g>
</svg>