<?xml version="1.0" encoding="UTF-8"?>
<svg width="296px" height="105px" viewBox="0 0 296 105" version="1.1" xmlns="http://www.w3.org/2000/svg" xmlns:xlink="http://www.w3.org/1999/xlink">
    <!-- Generator: sketchtool 56.3 (101010) - https://sketch.com -->
    <title>3150968D-710C-46F7-A870-9FAAD5DE3C08@1.00x</title>
    <desc>Created with sketchtool.</desc>
    <g id="Page-1" stroke="none" stroke-width="1" fill="none" fill-rule="evenodd">
        <g id="odds-graphics" transform="translate(-41.000000, -617.000000)">
            <g id="odds5" transform="translate(41.000000, 611.000000)">
                <text id="Very-Likely" font-family="Roboto-Black, Roboto" font-size="40" font-weight="700" fill="#082D46">
                    <tspan x="1" y="54">VERY LIKELY</tspan>
                </text>
                <text id="Odds-of-getting-in" font-family="Roboto-Light, Roboto" font-size="16" font-weight="300" line-spacing="24" fill="#2A67FF">
                    <tspan x="1" y="17">ODDS OF GETTING IN</tspan>
                </text>
                <g id="faces" transform="translate(0.000000, 71.000000)" stroke-linecap="round" stroke-linejoin="round">
                    <g id="1" stroke="#2A67FF">
                        <path d="M39.1666667,20 C39.1666667,30.585 30.585,39.1666667 20,39.1666667 C9.41333333,39.1666667 0.833333333,30.585 0.833333333,20 C0.833333333,9.41333333 9.41333333,0.833333333 20,0.833333333 C30.585,0.833333333 39.1666667,9.41333333 39.1666667,20 L39.1666667,20 Z" id="Stroke-54" fill="#FFFFFF"></path>
                        <path d="M7.5,34.5051667 C7.5,17.5401667 32.5,17.2451667 32.5,34.5051667" id="Stroke-55"></path>
                        <path d="M15.8333333,13.3333333 C15.8333333,17.7433333 9.16666667,17.7383333 9.16666667,13.3333333" id="Stroke-56"></path>
                        <path d="M24.1666667,13.3333333 C24.1666667,17.7433333 30.8333333,17.7383333 30.8333333,13.3333333" id="Stroke-57"></path>
                    </g>
                    <g id="2" transform="translate(49.000000, 0.000000)" stroke="#2A67FF">
                        <path d="M39.1666667,20 C39.1666667,30.585 30.5866667,39.1666667 20,39.1666667 C9.41333333,39.1666667 0.833333333,30.585 0.833333333,20 C0.833333333,9.41333333 9.41333333,0.833333333 20,0.833333333 C30.5866667,0.833333333 39.1666667,9.41333333 39.1666667,20 L39.1666667,20 Z" id="Stroke-2289" fill="#FFFFFF"></path>
                        <path d="M21.6666667,30.8333333 C23.9066667,27.4616667 27.7383333,25.24 32.0866667,25.24" id="Stroke-2286"></path>
                        <path d="M16.6666667,14.1666667 C16.6666667,15.5466667 15.5466667,16.6666667 14.1666667,16.6666667 C12.7866667,16.6666667 11.6666667,15.5466667 11.6666667,14.1666667 C11.6666667,12.7866667 12.7866667,11.6666667 14.1666667,11.6666667 C15.5466667,11.6666667 16.6666667,12.7866667 16.6666667,14.1666667 L16.6666667,14.1666667 Z" id="Stroke-2287"></path>
                        <path d="M23.3333333,14.1666667 C23.3333333,15.5466667 24.4533333,16.6666667 25.8333333,16.6666667 C27.2133333,16.6666667 28.3333333,15.5466667 28.3333333,14.1666667 C28.3333333,12.7866667 27.2133333,11.6666667 25.8333333,11.6666667 C24.4533333,11.6666667 23.3333333,12.7866667 23.3333333,14.1666667 L23.3333333,14.1666667 Z" id="Stroke-2288"></path>
                    </g>
                    <g id="3" transform="translate(98.000000, 0.000000)" stroke="#2A67FF">
                        <path d="M39.1666667,20 C39.1666667,30.5866667 30.585,39.1666667 20,39.1666667 C9.41333333,39.1666667 0.833333333,30.5866667 0.833333333,20 C0.833333333,9.41333333 9.41333333,0.833333333 20,0.833333333 C30.585,0.833333333 39.1666667,9.41333333 39.1666667,20 L39.1666667,20 Z" id="Stroke-2227" fill="#FFFFFF"></path>
                        <path d="M16.25,14.1666667 C16.25,15.5466667 15.13,16.6666667 13.75,16.6666667 C12.3683333,16.6666667 11.25,15.5466667 11.25,14.1666667 C11.25,12.7866667 12.3683333,11.6666667 13.75,11.6666667 C15.13,11.6666667 16.25,12.7866667 16.25,14.1666667 L16.25,14.1666667 Z" id="Stroke-2225"></path>
                        <path d="M22.9166667,14.1666667 C22.9166667,15.5466667 24.035,16.6666667 25.4166667,16.6666667 C26.7966667,16.6666667 27.9166667,15.5466667 27.9166667,14.1666667 C27.9166667,12.7866667 26.7966667,11.6666667 25.4166667,11.6666667 C24.035,11.6666667 22.9166667,12.7866667 22.9166667,14.1666667 L22.9166667,14.1666667 Z" id="Stroke-2226"></path>
                        <path d="M8.33333333,27.5 L31.6666667,27.5" id="Stroke-2228"></path>
                    </g>
                    <g id="4" transform="translate(147.000000, 0.000000)" stroke="#2A67FF">
                        <path d="M39.1666667,20 C39.1666667,30.5866667 30.585,39.1666667 20,39.1666667 C9.41333333,39.1666667 0.833333333,30.5866667 0.833333333,20 C0.833333333,9.41333333 9.41333333,0.833333333 20,0.833333333 C30.585,0.833333333 39.1666667,9.41333333 39.1666667,20 L39.1666667,20 Z" id="Stroke-2232" fill="#FFFFFF"></path>
                        <path d="M16.6666667,14.1666667 C16.6666667,15.5466667 15.5466667,16.6666667 14.1666667,16.6666667 C12.785,16.6666667 11.6666667,15.5466667 11.6666667,14.1666667 C11.6666667,12.7866667 12.785,11.6666667 14.1666667,11.6666667 C15.5466667,11.6666667 16.6666667,12.7866667 16.6666667,14.1666667 L16.6666667,14.1666667 Z" id="Stroke-2229"></path>
                        <path d="M23.3333333,14.1666667 C23.3333333,15.5466667 24.4516667,16.6666667 25.8333333,16.6666667 C27.2133333,16.6666667 28.3333333,15.5466667 28.3333333,14.1666667 C28.3333333,12.7866667 27.2133333,11.6666667 25.8333333,11.6666667 C24.4516667,11.6666667 23.3333333,12.7866667 23.3333333,14.1666667 L23.3333333,14.1666667 Z" id="Stroke-2230"></path>
                        <path d="M30.4191667,26.0741667 C28.1808333,29.4475 24.3475,31.6675 20.0008333,31.6675" id="Stroke-2231"></path>
                    </g>
                    <g id="5" transform="translate(196.000000, 0.000000)" stroke="#2A67FF">
                        <path d="M39.1666667,20 C39.1666667,30.585 30.585,39.1666667 20,39.1666667 C9.41333333,39.1666667 0.833333333,30.585 0.833333333,20 C0.833333333,9.41333333 9.41333333,0.833333333 20,0.833333333 C30.585,0.833333333 39.1666667,9.41333333 39.1666667,20 L39.1666667,20 Z" id="Stroke-6392" fill="#FFFFFF"></path>
                        <path d="M32.5,22.5 C32.5,28.5716667 26.9033333,34.1666667 20,34.1666667 C13.0966667,34.1666667 7.5,28.5716667 7.5,22.5 L32.5,22.5 L32.5,22.5 Z" id="Stroke-6393"></path>
                        <path d="M15,12.5 C15,13.88 13.88,15 12.5,15 C11.1183333,15 10,13.88 10,12.5 C10,11.12 11.1183333,10 12.5,10 C13.88,10 15,11.12 15,12.5 L15,12.5 Z" id="Stroke-6394"></path>
                        <path d="M25,12.5 C25,13.88 26.1183333,15 27.5,15 C28.88,15 30,13.88 30,12.5 C30,11.12 28.88,10 27.5,10 C26.1183333,10 25,11.12 25,12.5 L25,12.5 Z" id="Stroke-6395"></path>
                    </g>
                    <g id="5-selected" transform="translate(196.000000, 0.000000)">
                        <path d="M39.1666667,20 C39.1666667,30.585 30.585,39.1666667 20,39.1666667 C9.41333333,39.1666667 0.833333333,30.585 0.833333333,20 C0.833333333,9.41333333 9.41333333,0.833333333 20,0.833333333 C30.585,0.833333333 39.1666667,9.41333333 39.1666667,20 L39.1666667,20 Z" id="Stroke-6392" stroke="#2A67FF" fill="#2A67FF"></path>
                        <path d="M32.5,22.5 C32.5,28.5716667 26.9033333,34.1666667 20,34.1666667 C13.0966667,34.1666667 7.5,28.5716667 7.5,22.5 L32.5,22.5 L32.5,22.5 Z" id="Stroke-6393" stroke="#FFFFFF" stroke-width="2"></path>
                        <path d="M15,12.5 C15,13.88 13.88,15 12.5,15 C11.1183333,15 10,13.88 10,12.5 C10,11.12 11.1183333,10 12.5,10 C13.88,10 15,11.12 15,12.5 L15,12.5 Z" id="Stroke-6394" stroke="#FFFFFF" stroke-width="2"></path>
                        <path d="M25,12.5 C25,13.88 26.1183333,15 27.5,15 C28.88,15 30,13.88 30,12.5 C30,11.12 28.88,10 27.5,10 C26.1183333,10 25,11.12 25,12.5 L25,12.5 Z" id="Stroke-6395" stroke="#FFFFFF" stroke-width="2"></path>
                    </g>
                </g>
            </g>
        </g>
    </g>
</svg>