<?xml version="1.0" encoding="UTF-8"?>
<svg width="1153px" height="740px" viewBox="0 0 1153 740" version="1.1" xmlns="http://www.w3.org/2000/svg" xmlns:xlink="http://www.w3.org/1999/xlink">
    <!-- Generator: sketchtool 56.2 (101010) - https://sketch.com -->
    <title>9635B497-6134-4F22-B03A-B42067118E3A@1.00x</title>
    <desc>Created with sketchtool.</desc>
    <g id="Page-1" stroke="none" stroke-width="1" fill="none" fill-rule="evenodd">
        <g id="School-Finder-mod-2" transform="translate(-287.000000, 0.000000)">
            <g id="Hero" transform="translate(0.000000, -191.000000)">
                <g id="Group-9" transform="translate(287.000000, 0.000000)">
                    <g id="Scene/Home" transform="translate(1.000000, 0.000000)">
                        <g id="Clock" transform="translate(1037.472973, 299.867647)">
                            <circle id="Clock-Frame" fill="#F2F2F2" cx="53" cy="53" r="53"></circle>
                            <circle id="Time" fill-opacity="0.1" fill="#000000" cx="53" cy="11" r="3"></circle>
                            <circle id="Time" fill-opacity="0.1" fill="#000000" cx="11" cy="53" r="3"></circle>
                            <circle id="Time" fill-opacity="0.1" fill="#000000" cx="95" cy="53" r="3"></circle>
                            <circle id="Time" fill-opacity="0.1" fill="#000000" cx="53" cy="95" r="3"></circle>
                            <polygon id="Hand" fill="#AFB9C5" points="53 17 55 52 51 52"></polygon>
                            <polygon id="Hand" fill="#AFB9C5" transform="translate(62.213203, 62.213203) rotate(135.000000) translate(-62.213203, -62.213203) " points="62.2132034 50.2132034 64.2132034 74.2132034 60.2132034 74.2132034"></polygon>
                            <circle id="Time" fill="#C5CFD6" cx="53" cy="53" r="4"></circle>
                        </g>
                        <g id="Background-Shape-2" opacity="0.171619234" transform="translate(564.500000, 801.500000) scale(-1, 1) rotate(7.000000) translate(-564.500000, -801.500000) translate(15.000000, 646.000000)">
                            <path d="M1.02838885,193.767732 C13.4914762,107.227524 682.189172,-59.8041949 806.330568,22.16498 C930.471964,104.134155 811.125409,257.968854 550.970896,297.362005 C290.816383,336.755157 -11.4346985,280.30794 1.02838885,193.767732 Z" id="Background-Shape" fill="#F2F2F2" opacity="0.323939732" transform="translate(428.155405, 155.147059) scale(-1, 1) translate(-428.155405, -155.147059) "></path>
                            <path d="M196.95546,184.240019 C209.791413,105.533953 898.49495,-46.3770452 1026.35036,28.1717848 C1154.20577,102.720615 1121.84307,259.525441 853.905358,295.352486 C585.967642,331.179531 184.119507,262.946085 196.95546,184.240019 Z" id="Background-Shape" fill="#DDE3E9" opacity="0.534644717"></path>
                        </g>
                        <g id="Hanging-Lamp" transform="translate(335.000000, 0.000000)">
                            <g id="Light" transform="translate(0.000000, 348.776411)">
                                <ellipse id="Hanging-Lamp-Light" fill="#F2F2F2" cx="49.5" cy="34.5" rx="42.5" ry="22.5"></ellipse>
                                <path d="M99,50 C99,22.3857625 76.8380951,0 49.5,0 C22.1619049,0 -7.10542736e-15,22.3857625 -7.10542736e-15,50" id="Hanging-Lamp" fill="#DDE3E9"></path>
                            </g>
                            <rect id="Wire" fill="#DDE3E9" x="47" y="0" width="5" height="356.102941"></rect>
                        </g>
                        <g id="Hanging-Lamp" opacity="0.7" transform="translate(547.010135, 0.000000)">
                            <g id="Light" transform="translate(0.000000, 261.477941)">
                                <ellipse id="Hanging-Lamp-Light" fill="#F2F2F2" cx="37" cy="27.8421053" rx="31.7676768" ry="18.1578947"></ellipse>
                                <path d="M74,40.3508772 C74,18.0657031 57.4345357,0 37,0 C16.5654643,0 -7.10542736e-15,18.0657031 -7.10542736e-15,40.3508772" id="Hanging-Lamp" fill="#DDE3E9"></path>
                            </g>
                            <rect id="Wire" fill="#DDE3E9" x="35" y="0" width="5" height="284.477941"></rect>
                        </g>
                        <g id="Plant" transform="translate(1054.000000, 629.000000)">
                            <g id="Succulents" transform="translate(13.000000, 0.000000)">
                                <path d="M3.38092413,0.208187006 C12.213925,21.197225 27.2292006,35.7805339 35.1818951,57.6048833 C39.8977667,70.5473636 41.863552,84.6195065 41.9827844,99.0319481 C42.0475621,106.860255 41.9112966,114.693588 41.8746494,122.521895 C41.8390346,130.156002 41.6315393,137.74129 40.9835037,145.326577 C40.3323712,152.952069 39.603299,160.486743 39.2817329,168.159259 C39.0313966,174.137461 38.9170678,181.09097 36.890634,186.544007 C35.2791907,190.880662 31.1834821,191.51603 30.0967128,186.256476 C29.4928087,183.332706 29.5689419,180.068279 29.6355262,177.063384 C29.7209502,173.208101 29.9452206,169.358561 30.0595494,165.503996 C30.5191876,150.036197 29.9232839,134.565527 30.2347849,119.091626 C30.5390596,103.9731 32.4823921,88.871087 30.3320805,73.8534305 C28.5564992,61.4519104 24.045542,50.802498 18.8615156,40.5931767 C13.873887,30.7708195 8.44546012,21.187174 5.07495258,10.0143908 C4.10715753,6.80560332 3.35898744,3.48051124 3,0.0301404047 C3.15691184,-0.0427294746 3.28388655,0.0164997376 3.38092413,0.208187006 Z" id="Thi-Succs!" fill="#C1DEE2"></path>
                                <path d="M0.973588404,41.6169557 C2.7226644,42.8799919 3.70001184,44.7275773 4.88222633,46.55055 C6.35238241,48.8169596 8.08078375,50.8630865 9.55056393,53.131137 C12.6152999,57.8596264 15.3078921,62.8785444 18.1016022,67.7986018 C23.4055915,77.1374401 27.4326388,87.0907728 29.4271794,97.8948808 C31.4946451,109.09156 32.052109,120.648403 32.9193169,132.012037 C33.8391512,144.05621 34.7653759,156.188167 34.8871684,168.278693 C34.9416743,173.695515 35.2345026,179.445837 34.5841907,184.824509 C34.1793433,188.173053 32.6682138,191.026883 29.2614062,191 C22.0249003,190.94238 18.6274903,182.927289 17.2080811,176.353675 C15.118813,166.674363 14.7019367,156.392862 15.0327312,146.494087 C15.432316,134.55821 17.5039166,122.801595 18.4004449,110.911661 C19.3499755,98.3247808 18.8135622,85.9602344 14.4861685,74.1088605 C12.2999174,68.1197961 9.76257314,62.2743052 7.48422591,56.3250312 C6.51402064,53.7919851 5.71936199,51.1900238 4.40896463,48.831317 C2.95121334,46.2076145 1.14161698,43.8259359 -3.0475622e-14,41 C0.324404167,41.2059254 0.649184237,41.4114405 0.973588404,41.6169557 Z" id="Thi-Succs!" fill="#89C5CC"></path>
                                <path d="M84.3341427,16.5176702 C84.5560133,16.345237 84.7781571,16.1728402 85,16 C84.3609397,18.6926575 83.2065589,20.8798938 82.3241537,23.3413066 C81.5309592,25.5541267 81.1289139,28.058225 80.5946654,30.4769505 C79.3401416,36.1577567 77.8904265,41.7105156 76.7055048,47.4397171 C74.3598951,58.7767524 74.8035283,70.9901843 76.3418843,83.5681524 C77.7947507,95.4496261 80.092478,107.312713 81.1873452,119.191609 C82.0949201,129.04307 82.4850091,139.201741 81.6192928,148.601 C81.0309846,154.984369 79.1025548,162.605994 73.8481376,161.961759 C71.3744617,161.658503 70.0840672,158.681129 69.5641892,155.320205 C68.7291114,149.921644 68.5543005,144.245802 68.2287956,138.877693 C67.5023548,126.895908 67.3576487,114.950973 67.2142162,103.092499 C67.078414,91.904007 66.7045185,80.493842 67.4521172,69.5872699 C68.1731866,59.0630547 70.4284885,49.5797393 73.6530782,40.8297246 C75.3514544,36.2198206 76.9696914,31.5020505 78.8779164,27.1084404 C79.7930343,25.0009936 80.9110333,23.1387509 81.826535,21.0329683 C82.5626976,19.3391662 83.148338,17.6010976 84.3341427,16.5176702 Z" id="Thi-Succs!" fill="#C1DEE2"></path>
                                <path d="M3.20880772,76.3018223 C4.16572159,74.6953252 6.27206517,79.9934093 6.59263271,80.6597751 C6.45704992,80.3283084 6.32092787,79.9973172 6.18360206,79.666614 C8.08298767,82.8249267 9.82062484,86.1127294 10.9009829,89.7341519 C11.9700503,93.3191128 12.888301,96.9765376 13.89141,100.586979 C15.7735895,107.360999 18.2016657,113.942756 19.9069626,120.7778 C21.5685818,127.438224 21.9875459,133.985891 21.5852981,140.875198 C21.1672391,148.035491 20.9114736,155.305643 21.3991881,162.462075 C21.632116,165.880018 22.7427231,169.063767 23.5039187,172.354313 C24.2660416,175.648102 24.8662939,178.985809 25.7672782,182.238759 C25.974095,181.814996 26.0004407,183.231705 26,183.339248 C25.99434,184.151918 25.8808641,184.833382 25.6194022,185.603962 C24.9475372,187.585538 23.69062,189.268993 21.7779741,189.815552 C18.3215161,190.803119 15.1122443,187.659032 13.9975999,184.339008 C12.398575,179.575285 11.5174472,174.310953 10.7554023,169.304056 C10.0567643,164.712777 9.89144111,160.094092 10.0990013,155.439587 C10.5078659,146.260651 12.1689639,137.201885 12.618303,128.025744 C13.1073521,118.035719 11.1280407,108.649277 9.47082403,98.9248264 C8.67258323,94.2391921 7.90974363,89.5977685 6.35630439,85.1336672 C5.7273694,83.3259909 4.90736765,81.7307159 4.04759418,80.0614309 C3.55838288,79.1117083 2.56905129,77.4176151 3.20880772,76.3018223 Z" id="Thi-Succs!" fill="#C1DEE2"></path>
                                <path d="M31.2520927,60.6970481 C30.8556379,72.1418193 30.1720216,83.4997745 28.6461885,94.8239462 C27.0889362,106.380282 25.300327,117.896941 23.8019539,129.46349 C22.3433779,140.722452 20.8145443,152.168401 21.0183676,163.584496 C21.1684795,171.99346 19.7741408,186.218697 29.1133695,190.368969 C38.572085,194.57188 40.6010206,176.62338 41.2221153,170.699078 C42.4123367,159.332874 42.027006,147.846855 41.4493767,136.418583 C40.8563654,124.689401 39.8664321,113.01993 38.6395466,101.333567 C37.2768349,88.3528226 36.2076085,75.3135458 35.3494633,62.2958749 C34.92489,55.8569635 34.820295,49.4286586 34.9374389,42.9881759 C35.048171,36.9106701 34.8172608,30.7703111 32.6564941,25 C32.5432773,25.0821019 32.4308129,25.1642038 32.3175887,25.2459129" id="Thi-Succs!" fill="#69A1AC"></path>
                                <path d="M80.0827466,96.9552251 C78.3816844,99.4332953 76.6669438,101.887253 75.0605101,104.512188 C72.1861393,109.208575 69.5869207,114.431593 68.8049844,121.146824 C67.1686355,135.200365 68.4814231,150.378956 68.7982735,164.862679 C68.863082,167.822444 68.4887518,170.692884 69.6553203,173.509621 C70.713019,176.063863 72.6905254,178.01037 74.5755064,178 C78.6108036,177.976942 77.9951288,168.09535 78.0017787,163.745849 C78.0139471,156.122577 77.1591232,148.422037 77.232697,140.805889 C77.3061571,133.260434 77.7650203,125.694154 78.8589994,118.527917 C79.96657,111.274547 81.5885624,104.309427 83.7291347,97.809562 C84.0261843,96.9075488 86.1579416,89.9374968 84.1438969,91.1387197" id="Thi-Succs!" fill="#89C5CC"></path>
                                <path d="M62.262195,22 C59.6091513,22 59.625416,35.2259973 59.5456053,36.9248132 C59.257379,43.055394 59.3250857,49.1876151 59.1427693,55.3194261 C58.7437159,68.7008304 58.2535042,82.1995075 56.243485,95.4263249 C55.1613125,102.546754 53.9066581,109.63561 52.557063,116.701913 C51.2036854,123.788718 49.3869518,130.866913 48.4965519,138.043518 C47.6417075,144.942523 48.1247324,151.977253 48.2419898,158.910292 C48.3592472,165.885155 48.5699324,172.87396 49.4837837,179.787726 C49.7092206,181.494333 49.9736172,183.194789 50.256548,184.891145 C50.4921976,186.304569 50.3548929,188.057511 50.7535682,189.400818 C51.3928102,191.552324 54.1328514,192.256371 55.9779537,191.920134 C60.9704721,191.008604 64.1594958,184.739838 65.8650239,180.159637 C68.0429859,174.311167 69.1985389,167.967363 70.3389619,161.803978 C71.6310631,154.821324 72.3883191,147.732059 72.7434956,140.623111 C73.4655743,126.17518 72.5388625,111.711667 71.5039711,97.310071 C70.928275,89.3006645 70.263312,81.3265219 69.2458201,73.3667309 C68.2324891,65.4409736 66.9324447,57.5504802 66.0859217,49.6013503 C65.4708876,43.8246382 64.8649315,38.0401352 64.4666346,32.2412807 C64.3713156,30.8586094 64.2911267,22 62.262195,22" id="Thi-Succs!" fill="#69A1AC"></path>
                                <path d="M58.9407927,118.138703 C58.5083549,104.252695 52.9265288,43.2589078 51.6565806,26.4671323 C51.3390091,22.2641696 48.2815387,4.76463908 47.8849122,-1.2490009e-14 C46.809561,1.346742 46.901454,22.3094454 46.9132785,27.1261944 C46.9257786,31.8908335 46.3348929,36.5764535 46.0308351,41.3154647 C45.7210339,46.1510074 38.5722965,108.600882 37.6445823,113.247206 C35.7989512,122.490734 34.5638007,131.976445 33.6110862,141.427558 C32.6830341,150.639478 31.2401108,160.357975 32.4820181,169.618161 C32.7674946,171.749969 33.2191894,173.847606 33.9546715,175.805999 C34.749276,177.922003 35.2938774,179.878687 35.9317231,182.09293 C36.9580872,185.659469 38.8148671,188.78948 41.667943,190.261798 C47.51734,193.280756 50.6582574,186.44667 52.2505069,180.496744 C54.7934439,170.994802 56.4255588,161.337812 57.190771,151.358766 C58.0374031,140.318301 59.2870808,129.255197 58.9407927,118.138703" id="Thi-Succs!" fill="#89C5CC"></path>
                            </g>
                            <g id="Planter" transform="translate(0.000000, 159.000000)">
                                <rect id="Vase" fill="#FFFFFF" x="10" y="0" width="91" height="91" rx="2"></rect>
                                <rect id="Leg" fill="#C5CFD6" x="0" y="10" width="10" height="113" rx="2"></rect>
                                <rect id="Leg" fill="#C5CFD6" x="50" y="10" width="10" height="113" rx="2"></rect>
                            </g>
                        </g>
                    </g>
                    <g id="people" transform="translate(404.000000, 332.000000)">
                        <g id="Group" transform="translate(0.000000, 71.000000)">
                            <g id="Head/Front/Chongo" transform="translate(83.126667, 0.000000)">
                                <g id="Head" stroke-width="1" transform="translate(60.750000, 34.875000)" fill="#57331F">
                                    <path d="M9.29505812,38.8013926 C4.11115989,32.7165479 0.602589143,25.2594868 1.18887338,16.9036356 C2.8781215,-7.17189815 36.392097,-1.87558746 42.9112591,10.2756745 C49.4304211,22.4269365 48.6557752,53.2496203 40.2303391,55.4213898 C36.8702868,56.2874884 29.7123763,54.1658936 22.4272935,49.7748443 L27,82.125 L0,82.125 L9.29505812,38.8013926 Z"></path>
                                </g>
                                <path d="M92.9964319,31.9162233 C89.3070601,30.7912233 83.9513885,30.4096998 81.6984167,30.6677973 C82.9800098,27.5971994 83.4885647,24.176184 83.0739697,20.8452215 C82.6710012,17.6085743 81.2247415,14.8526631 79.8871686,11.9648012 C79.2706157,10.6336858 78.5719016,9.30982549 77.5301605,8.29167368 C76.4689556,7.25438676 75.1256126,6.56969395 73.7169884,6.24303654 C72.2754654,5.90867066 70.7681446,5.93651181 69.3243824,6.23995315 C68.6856959,6.37417108 68.1126349,6.66618576 67.486264,6.8285169 C66.8448215,6.99483831 66.5336599,6.59336347 66.0680802,6.18989349 C64.9460727,5.2177204 63.3012138,4.73780062 61.8817382,4.56603795 C60.2891558,4.37341709 58.636632,4.61364904 57.1177707,5.13718964 C55.6393871,5.64685502 54.2191364,6.47447177 53.1502666,7.68016592 C52.6743522,8.21685626 52.2423603,8.8277292 51.9616001,9.50217428 C51.8464539,9.77895342 51.8274208,9.94291694 51.5512251,10.0443059 C51.2957849,10.1381677 50.997025,10.1408884 50.7334032,10.2302159 C48.1843412,11.0935636 46.0049183,13.063121 44.8182325,15.59195 C44.1258915,17.0672589 43.797936,19.6647565 43.8877621,22.5761246 C43.9775881,25.4874927 46.6063997,33.0840827 49.0651189,35.8549574 C51.2597856,38.3281948 54.4856864,39.9603029 57.5989386,40.6747413 C55.5325088,43.0367048 54.1569558,45.9882295 53.1397597,48.9899953 C52.0348906,52.2506748 51.3510757,55.6386799 51.0985637,59.0907105 C50.8587118,62.3705251 50.8364921,65.8389703 51.6053963,69.0487739 C52.3246937,72.050449 53.8629326,74.5128945 56.4308554,76.0750823 C57.6071203,76.7906997 58.8726945,77.3282969 60.1455891,77.8196433 C61.4000535,78.3038254 62.6583072,78.7745857 63.9723686,79.0462864 C66.459336,79.5603047 69.3248991,79.4720655 71.2406141,77.4925325 C71.9310604,76.7789103 72.690405,75.8821894 73.1941371,75.0104077 C73.3752533,74.6969 73.4844569,74.4918549 73.2644133,74.1854209 C73.0007914,73.8184074 72.5743976,73.5371846 72.2357628,73.250067 C70.3046318,71.6130618 69.1092477,69.4276674 68.8079041,66.8305505 C68.5021682,64.1954355 69.2100113,60.79419 71.7719917,59.6441781 C74.9345061,58.2245515 78.4173112,59.8540297 81.2281864,61.3729594 C82.4227954,57.1567028 84.8756582,53.3604212 88.7212985,51.4264135 C92.9758498,49.2868165 97.8578916,49.0364275 102.230087,47.2006346 C103.369405,46.7222565 104.529823,46.179218 105.368659,45.2045057 C105.719179,44.7971361 106.130415,44.2686984 106.270364,43.7299222 C106.454236,43.0221947 105.997786,42.4288245 105.645199,41.87708 C103.775646,38.9515826 96.6858037,33.0412233 92.9964319,31.9162233 Z" id="hair" fill="#191847"></path>
                            </g>
                            <g id="Bottom/Sitting/Sweat-Pants" transform="translate(0.000000, 211.334895)">
                                <g id="Objects/Seat/Ball" transform="translate(11.233333, 47.271967)" fill="#C5CFD6">
                                    <ellipse id="Ballsy-Ball" cx="130.5" cy="66.0483871" rx="86.625" ry="82.983871"></ellipse>
                                </g>
                                <path d="M304.995394,183.077403 C290.602366,151.15948 280.193473,123.366643 276.015382,108.703076 C268.861476,83.5954899 263.419214,61.5022802 262.043704,53.2516189 C258.763624,33.5768588 287.275959,32.4311582 291.044691,42.2091712 C296.748816,57.0085821 306.706928,105.633271 318.672359,179.079053 L304.995394,183.077403 Z M138.044576,82.9100111 C151.250164,77.6800269 197.49543,61.3127313 219.799522,56.6827228 C226.208823,55.3522441 232.420906,54.1160793 238.261354,52.99893 C255.62123,49.6783669 264.615275,81.0572728 247.895597,83.4682865 C206.256989,89.4726634 147.22723,95.6731583 142.175573,96.3689957 C135.09546,97.3442416 129.745275,86.1968931 138.044576,82.9100111 Z" id="Skin" fill="#57331F"></path>
                                <path d="M248.916199,44.3639048 L177.486667,7.93124261 L177.486667,0 L185.981522,0 C255.086394,17.6433861 290.398928,28.9503311 291.919123,33.920835 C291.935478,33.9743118 291.950474,34.0278586 291.96411,34.0814756 C291.998887,34.1272108 292.033075,34.1732226 292.066667,34.2195106 C305.761792,53.0909495 313.963747,145.222819 316.655777,152.121341 L290.412817,156.04406 C280.374188,118.746387 248.256667,92.763469 249.109824,48.0924847 C248.879453,46.7821115 248.821244,45.5394453 248.916199,44.3639048 Z" id="Leg-Back" fill="#2026A2"></path>
                                <path d="M183.421432,66.0012054 C176.885795,64.6903632 170.867176,63.5204566 165.717172,62.615388 C132.451435,56.7692234 122.750864,38.9276207 128.48636,-4.97379915e-14 L189.777913,-4.97379915e-14 C199.789993,2.88169691 251.822168,24.7444407 278.818772,36.372781 C296.686508,44.0690124 291.054016,71.8134108 280.935508,79.0336428 C280.880562,79.4765901 280.698462,79.7774714 280.374188,79.9121339 C225.943747,102.515622 182.884273,90.6556293 168.5,94.4450754 L161.846631,73.4160837 L183.421432,66.0012054 Z" id="Leg-Front" fill="#1F28CF"></path>
                                <g id="Accessories/Shoe/Flat-Sneaker" transform="translate(161.714274, 105.047112) rotate(64.000000) translate(-161.714274, -105.047112) translate(127.452607, 82.536651)" fill="#E4E4E4">
                                    <path d="M3.1313891,28.3080469 C1.79789473,31.8030161 1.13114754,34.406627 1.13114754,36.1188797 C1.13114754,38.1475767 1.47096033,41.1079501 2.15058591,45 C4.51687706,45 25.7831341,45 65.9493571,45 C67.607261,39.5488207 66.6502227,36.6059043 63.0782422,36.171251 C59.5062618,35.7365978 56.5389569,35.3441406 54.1763277,34.9938797 L24.3971822,21.7903387 C23.8922992,21.5664825 23.3015394,21.7942999 23.0776833,22.2991829 C23.074387,22.3066173 23.0711815,22.3140916 23.0680676,22.3216042 L21.1108476,27.0435319 C17.8041279,28.5779837 15.1170749,29.3452096 13.0496885,29.3452096 C11.3229394,29.3452096 8.91985705,28.6321945 5.84044141,27.2061645 L5.84044935,27.2061474 C4.8381261,26.7419869 3.64930615,27.178254 3.18514567,28.1805773 C3.16576222,28.2224345 3.14783264,28.2649498 3.1313891,28.3080469 Z" id="shoe"></path>
                                </g>
                                <g id="Accessories/Shoe/Flat-Sneaker" transform="translate(295.436667, 148.569038)" fill="#E4E4E4">
                                    <path d="M3.1313891,28.3080469 C1.79789473,31.8030161 1.13114754,34.406627 1.13114754,36.1188797 C1.13114754,38.1475767 1.47096033,41.1079501 2.15058591,45 C4.51687706,45 25.7831341,45 65.9493571,45 C67.607261,39.5488207 66.6502227,36.6059043 63.0782422,36.171251 C59.5062618,35.7365978 56.5389569,35.3441406 54.1763277,34.9938797 L24.3971822,21.7903387 C23.8922992,21.5664825 23.3015394,21.7942999 23.0776833,22.2991829 C23.074387,22.3066173 23.0711815,22.3140916 23.0680676,22.3216042 L21.1108476,27.0435319 C17.8041279,28.5779837 15.1170749,29.3452096 13.0496885,29.3452096 C11.3229394,29.3452096 8.91985705,28.6321945 5.84044141,27.2061645 L5.84044935,27.2061474 C4.8381261,26.7419869 3.64930615,27.178254 3.18514567,28.1805773 C3.16576222,28.2224345 3.14783264,28.2649498 3.1313891,28.3080469 Z" id="shoe"></path>
                                </g>
                            </g>
                            <g id="Body/Long-Sleeve" transform="translate(22.466667, 92.177986)">
                                <path d="M216,73.3436678 L260.418235,67.2956396 C269.303685,62.3621687 277.477867,59.0222952 284.940782,57.2760191 C287.040924,57.2148105 290.381846,57.9769051 285.404798,62.1186702 C280.42775,66.2604353 275.377833,70.8420924 276.264592,73.0524802 C277.151352,75.2628679 281.779943,74.4404556 282.546718,77.8402199 C283.057901,80.1067294 275.545979,80.4750146 260.010951,78.9450755 L223.969358,93.2085561 L216,73.3436678 Z M76.4660159,83.6065963 L101.100582,83.6988837 C74.0881117,144.378559 60.0033908,176.149476 58.8464191,179.011633 C56.2432326,185.451486 61.7519252,195.259271 64.1076608,200.529901 C56.4351085,203.95702 57.2526271,191.265 47.5739088,195.759858 C38.7396235,199.862555 32.0194047,207.296368 21.8126646,201.009722 C20.5578059,200.236816 19.1826852,197.326685 22.5051507,195.052571 C30.7826239,189.386925 42.7109642,179.471023 44.3226709,176.207127 C46.5205208,171.756221 57.2349691,140.889378 76.4660159,83.6065963 Z" id="Skin" fill="#3D2216"></path>
                                <path d="M138.917056,10.8675138 L158.243508,10.4642077 C166.714651,52.786706 194.852412,77.5256827 251.763898,63.3380387 L264.246046,117.702346 C210.915148,129.38011 161.723877,111.96211 146.922677,54.4450939 C143.091114,39.5557555 139.733795,24.0053726 138.917056,10.8675138 Z" id="Clothes-Back" fill="#DDE3E9" transform="translate(201.581551, 65.798772) rotate(5.000000) translate(-201.581551, -65.798772) "></path>
                                <path d="M134.427169,0.0179000335 L163.651055,6.69897369 C163.651055,56.873418 179.662528,88.8855421 187.875,125.775401 L108.949111,125.775401 C107.837302,138.522399 107.15455,151.624004 106.79877,165.080214 L47.7018402,165.080214 C61.093536,93.9541834 89.3588752,38.9274454 132.497858,0 L134.411798,0 L134.427169,0.0179000335 Z" id="Clothes" fill="#F2F2F2"></path>
                                <path d="M121.40151,54.1948789 C119.367521,85.4604868 120.563768,109.320661 124.990251,125.775401 L108.949111,125.775401 C111.151601,100.523633 115.037861,76.6634634 121.401507,54.1948909 Z" id="Shade" fill-opacity="0.1" fill="#000000"></path>
                            </g>
                        </g>
                        <g id="Head/Front/Short-Beard" transform="translate(489.500000, 58.500000) scale(-1, 1) translate(-489.500000, -58.500000) translate(413.000000, 0.000000)">
                            <g id="Head" stroke-width="1" transform="translate(60.750000, 34.875000)" fill="#B28B67">
                                <path d="M9.29505812,38.8013926 C4.11115989,32.7165479 0.602589143,25.2594868 1.18887338,16.9036356 C2.8781215,-7.17189815 36.392097,-1.87558746 42.9112591,10.2756745 C49.4304211,22.4269365 48.6557752,53.2496203 40.2303391,55.4213898 C36.8702868,56.2874884 29.7123763,54.1658936 22.4272935,49.7748443 L27,82.125 L0,82.125 L9.29505812,38.8013926 Z"></path>
                            </g>
                            <path d="M84.5272186,54.4375452 C85.560738,68.8343687 88.2946703,76.0327804 92.7290154,76.0327804 C99.3809226,76.0327804 105.024593,71.8099249 107.94329,71.8099249 C110.070922,71.8099249 109.595887,74.4724581 108.185582,76.4465373 C107.022034,78.0752161 101.355657,79.6450678 101.355657,82.1700669 C101.355657,84.695066 105.832565,82.7416134 105.832565,84.239141 C105.832565,86.7162344 106.619375,91.3736131 102.320127,91.3736131 C97.9691448,91.3736131 85.4941078,89.7880317 83.3562243,83.3304061 C81.9764969,79.1628435 81.0844039,70.5268741 80.6799455,57.4224979 C80.4160009,57.3911338 80.1473846,57.375 79.875,57.375 C76.1470779,57.375 73.125,60.3970779 73.125,64.125 C73.125,66.0174955 73.9038283,67.728086 75.1584544,68.9537407 C73.5965959,71.1582932 71.8462006,73.4612435 69.8404345,75.837589 C62.305206,71.3167584 56.713638,58.0825927 64.0805469,45.3693131 C66.1167837,39.1412751 70.7265389,35.8146459 76.1707708,34.2699852 C80.5808792,32.4252229 85.158989,32.2172243 89.0235657,33.3231427 C96.5992062,33.9729342 103.36389,36.2829524 105.281056,37.6548153 C105.281056,44.8269426 103.891354,46.9548917 92.0214063,46.7673209 C89.1047678,48.3076532 86.8626032,50.9601034 84.5272186,54.4375452 Z" id="Hair" fill="#191847"></path>
                        </g>
                        <g id="Bottom/Standing/Sweatpants" transform="translate(498.500000, 346.500000) scale(-1, 1) translate(-498.500000, -346.500000) translate(330.000000, 212.000000)">
                            <polygon id="Leg" fill="#997659" points="143.786667 9.9475983e-14 184.935308 142.071291 204.289573 248.740586 223.715424 248.740586 204.324194 9.9475983e-14"></polygon>
                            <path d="M125.294047,0 C128.165262,73.8052986 127.032897,114.060714 126.390284,120.766246 C125.747672,127.471778 122.099515,172.380938 97.2398755,250.991632 L117.444469,250.991632 C150.366974,175.578103 161.859905,130.668944 165.635867,120.766246 C169.411829,110.863549 180.56393,70.6081335 196.845503,0 L125.294047,0 Z" id="Leg" fill="#B28B67"></path>
                            <path d="M142.903321,1.13686838e-13 C153.606724,48.8871205 172.119024,126.923383 198.440222,234.108787 L226.85274,234.108787 C228.951328,124.093221 220.024031,51.6845735 204.564182,1.13686838e-13 L142.903321,1.13686838e-13 Z" id="Pant" fill="#69A1AC"></path>
                            <path d="M125.150475,0 C127.962455,73.8052986 120.675032,146.517497 98.1012704,235.257898 L128.415864,235.257898 C161.398895,160.969892 185.038895,88.6165017 201.195264,0 L125.150475,0 Z" id="Pant" fill="#89C5CC"></path>
                            <g id="Accessories/Shoe/Flat-Simple" transform="translate(94.360000, 223.979079)" fill="#191847">
                                <path d="M0,41.625 L1.12257646,23.625 C7.69510386,25.5368532 15.9273313,24.7868532 25.8192587,21.375 C36.5165973,28.9112545 49.9990636,34.0434823 66.2666574,36.7716833 C67.3560102,36.954381 68.0910038,37.9855785 67.9083108,39.0749321 C67.8960054,39.1483059 67.8796155,39.2209359 67.8592173,39.2924835 L66.2320113,45 L25.8192587,45 L2.24515293,45 L0,41.625 Z" id="Shoe"></path>
                            </g>
                            <g id="Accessories/Shoe/Flat-Simple" transform="translate(199.953333, 223.979079)" fill="#191847">
                                <path d="M0,41.625 L1.12257646,23.625 C7.69510386,25.5368532 15.9273313,24.7868532 25.8192587,21.375 C36.5165973,28.9112545 49.9990636,34.0434823 66.2666574,36.7716833 C67.3560102,36.954381 68.0910038,37.9855785 67.9083108,39.0749321 C67.8960054,39.1483059 67.8796155,39.2209359 67.8592173,39.2924835 L66.2320113,45 L25.8192587,45 L2.24515293,45 L0,41.625 Z" id="Shoe"></path>
                            </g>
                        </g>
                        <g id="Body/Pointing-Forward" transform="translate(497.000000, 198.000000) scale(-1, 1) rotate(8.000000) translate(-497.000000, -198.000000) translate(353.000000, 93.000000)">
                            <path d="M178.467794,47.9521329 L217.516299,26.6035432 C224.009826,18.9062014 230.407759,12.9281371 236.710098,8.66935014 C238.63589,7.86679667 242.003612,7.38103398 238.854152,12.9610506 C235.704691,18.5410673 232.643334,24.5517979 234.24786,26.2708802 C235.852386,27.9899626 239.853415,25.5884803 241.76759,28.4447503 C243.043707,30.3489302 236.208265,33.3569985 221.261264,37.4689551 L192.887766,63.4016303 L178.467794,47.9521329 Z M239.625,65.9645258 L256.777338,56.5587346 C259.184054,47.4172259 262.06099,42.8178238 265.408145,42.7605282 C267.979456,41.5662555 263.501536,53.1174054 268.375929,52.1156917 C273.250322,51.113978 285.147322,42.2815221 287.197235,44.0748444 C290.229948,46.7279492 287.525794,54.8745183 284.339659,58.9270001 C278.384776,66.5010837 273.45439,69.0911917 261.268175,72.4829538 C254.896592,74.2563421 248.007785,77.8109463 240.601752,83.1467663 L239.625,65.9645258 Z" id="Skin" fill="#997659"></path>
                            <path d="M160.713893,39.0167439 C174.245365,41.0138887 192.710637,41.0189746 213.860878,31.8841609 L218.747998,49.8835813 C203.40937,60.9180316 183.05769,68.7568412 166.829414,65.7181101 C154.040637,63.3234225 149.931959,46.7731552 160.713893,39.0167439 Z" id="Sleeve" fill="#191847" transform="translate(186.636230, 49.130799) rotate(-9.000000) translate(-186.636230, -49.130799) "></path>
                            <path d="M177.867301,70.4805304 C192.38744,74.0953048 216.736814,69.832487 250.915425,57.6920769 C259.393133,75.1996736 263.312165,87.6812473 262.67252,95.1367981 C233.352308,110.425242 208.222354,117.241579 187.51863,117.691561 C188.176566,129.95448 186.681283,141.62293 181.658174,152.284775 C171.331515,174.20372 110.86319,153.904333 90.531886,157.899748 C77.7998256,116.624477 102.41765,99.850374 102.437457,73.4400498 C102.459149,44.5179305 125.723711,-1.42108547e-13 129.146626,-1.42108547e-13 L160.361718,-1.42108547e-13 C162.084038,22.0882034 170.752951,46.4313175 177.867301,70.4805304 Z" id="Clothes" fill="#2F3676"></path>
                        </g>
                    </g>
                </g>
            </g>
        </g>
    </g>
</svg>