<?xml version="1.0" encoding="UTF-8"?>
<svg width="167px" height="154px" viewBox="0 0 167 154" version="1.1" xmlns="http://www.w3.org/2000/svg" xmlns:xlink="http://www.w3.org/1999/xlink">
    <!-- Generator: sketchtool 56.2 (101010) - https://sketch.com -->
    <title>44B6D770-C3FA-40E8-94B1-3B5AC1894220@1.00x</title>
    <desc>Created with sketchtool.</desc>
    <defs>
        <filter x="-40.0%" y="-33.3%" width="180.0%" height="166.7%" filterUnits="objectBoundingBox" id="filter-1">
            <feOffset dx="0" dy="2" in="SourceAlpha" result="shadowOffsetOuter1"></feOffset>
            <feGaussianBlur stdDeviation="2" in="shadowOffsetOuter1" result="shadowBlurOuter1"></feGaussianBlur>
            <feColorMatrix values="0 0 0 0 0   0 0 0 0 0   0 0 0 0 0  0 0 0 0.5 0" type="matrix" in="shadowBlurOuter1" result="shadowMatrixOuter1"></feColorMatrix>
            <feMerge>
                <feMergeNode in="shadowMatrixOuter1"></feMergeNode>
                <feMergeNode in="SourceGraphic"></feMergeNode>
            </feMerge>
        </filter>
        <filter x="-40.0%" y="-33.3%" width="180.0%" height="166.7%" filterUnits="objectBoundingBox" id="filter-2">
            <feOffset dx="0" dy="2" in="SourceAlpha" result="shadowOffsetOuter1"></feOffset>
            <feGaussianBlur stdDeviation="2" in="shadowOffsetOuter1" result="shadowBlurOuter1"></feGaussianBlur>
            <feColorMatrix values="0 0 0 0 0   0 0 0 0 0   0 0 0 0 0  0 0 0 0.5 0" type="matrix" in="shadowBlurOuter1" result="shadowMatrixOuter1"></feColorMatrix>
            <feMerge>
                <feMergeNode in="shadowMatrixOuter1"></feMergeNode>
                <feMergeNode in="SourceGraphic"></feMergeNode>
            </feMerge>
        </filter>
        <filter x="-40.0%" y="-33.3%" width="180.0%" height="166.7%" filterUnits="objectBoundingBox" id="filter-3">
            <feOffset dx="0" dy="2" in="SourceAlpha" result="shadowOffsetOuter1"></feOffset>
            <feGaussianBlur stdDeviation="2" in="shadowOffsetOuter1" result="shadowBlurOuter1"></feGaussianBlur>
            <feColorMatrix values="0 0 0 0 0   0 0 0 0 0   0 0 0 0 0  0 0 0 0.5 0" type="matrix" in="shadowBlurOuter1" result="shadowMatrixOuter1"></feColorMatrix>
            <feMerge>
                <feMergeNode in="shadowMatrixOuter1"></feMergeNode>
                <feMergeNode in="SourceGraphic"></feMergeNode>
            </feMerge>
        </filter>
        <filter x="-40.0%" y="-33.3%" width="180.0%" height="166.7%" filterUnits="objectBoundingBox" id="filter-4">
            <feOffset dx="0" dy="2" in="SourceAlpha" result="shadowOffsetOuter1"></feOffset>
            <feGaussianBlur stdDeviation="2" in="shadowOffsetOuter1" result="shadowBlurOuter1"></feGaussianBlur>
            <feColorMatrix values="0 0 0 0 0   0 0 0 0 0   0 0 0 0 0  0 0 0 0.5 0" type="matrix" in="shadowBlurOuter1" result="shadowMatrixOuter1"></feColorMatrix>
            <feMerge>
                <feMergeNode in="shadowMatrixOuter1"></feMergeNode>
                <feMergeNode in="SourceGraphic"></feMergeNode>
            </feMerge>
        </filter>
    </defs>
    <g id="Page-1" stroke="none" stroke-width="1" fill="none" fill-rule="evenodd">
        <g id="School-Finder-mod-2" transform="translate(-1199.000000, -881.000000)">
            <g id="Neighborhood-Module" transform="translate(0.000000, 740.000000)">
                <g id="map-and-regions" transform="translate(720.000000, 0.000000)">
                    <g id="region---koreatown" transform="translate(470.000000, 141.000000)">
                        <g id="Group-3" transform="translate(9.000000, 0.000000)">
                            <g id="bus-marker" transform="translate(55.510638, 43.352941)">
                                <g filter="url(#filter-1)">
                                    <path d="M25.5555556,13.4021739 C25.5555556,21.6195652 15,29.25 15,29.25 C15,29.25 4.44444444,21.6195652 4.44444444,13.4021739 C4.44444444,7.24382609 8.84611111,2.25 15,2.25 C21.152716,2.25 25.5555556,7.24382609 25.5555556,13.4021739 L25.5555556,13.4021739 Z" id="Stroke-1521" fill="#FFFFFF"></path>
                                    <g id="Group-2" transform="translate(10.000000, 7.875000)">
                                        <path d="M10,9 L0,9 L0,1.125 C0,0.504 0.55875,0 1.25,0 L8.75,0 C9.44125,0 10,0.504 10,1.125 L10,9 L10,9 Z" id="Stroke-1522" stroke="#FFAC01" fill="#FFEC00" stroke-linecap="round" stroke-linejoin="round"></path>
                                        <polygon id="Stroke-1523" stroke="#FFAC01" stroke-linecap="round" stroke-linejoin="round" points="0 4.5 10 4.5 10 2.25 0 2.25"></polygon>
                                        <path d="M2.77777778,6.75 C2.47111111,6.75 2.22222222,7.002 2.22222222,7.3125 C2.22222222,7.623 2.47111111,7.875 2.77777778,7.875 C3.08333333,7.875 3.33333333,7.623 3.33333333,7.3125 C3.33333333,7.002 3.08333333,6.75 2.77777778,6.75" id="Fill-1524" fill="#FFAC01"></path>
                                        <path d="M7.22222222,6.75 C6.91555556,6.75 6.66666667,7.002 6.66666667,7.3125 C6.66666667,7.623 6.91555556,7.875 7.22222222,7.875 C7.52777778,7.875 7.77777778,7.623 7.77777778,7.3125 C7.77777778,7.002 7.52777778,6.75 7.22222222,6.75" id="Fill-1525" fill="#FFAC01"></path>
                                    </g>
                                    <polygon id="Stroke-1311" stroke="#FFAC01" stroke-linecap="round" stroke-linejoin="round" points="11.1111111 18.27 12.2222222 18.27 12.2222222 17.73 11.1111111 17.73"></polygon>
                                    <polygon id="Stroke-1312" stroke="#FFAC01" stroke-linecap="round" stroke-linejoin="round" points="17.7777778 18.27 18.8888889 18.27 18.8888889 17.73 17.7777778 17.73"></polygon>
                                </g>
                            </g>
                            <g id="bus-marker" transform="translate(28.617021, 18.764706)">
                                <g filter="url(#filter-2)">
                                    <path d="M25.5555556,13.4021739 C25.5555556,21.6195652 15,29.25 15,29.25 C15,29.25 4.44444444,21.6195652 4.44444444,13.4021739 C4.44444444,7.24382609 8.84611111,2.25 15,2.25 C21.152716,2.25 25.5555556,7.24382609 25.5555556,13.4021739 L25.5555556,13.4021739 Z" id="Stroke-1521" fill="#FFFFFF"></path>
                                    <g id="Group-2" transform="translate(10.000000, 7.875000)">
                                        <path d="M10,9 L0,9 L0,1.125 C0,0.504 0.55875,0 1.25,0 L8.75,0 C9.44125,0 10,0.504 10,1.125 L10,9 L10,9 Z" id="Stroke-1522" stroke="#FFAC01" fill="#FFEC00" stroke-linecap="round" stroke-linejoin="round"></path>
                                        <polygon id="Stroke-1523" stroke="#FFAC01" stroke-linecap="round" stroke-linejoin="round" points="0 4.5 10 4.5 10 2.25 0 2.25"></polygon>
                                        <path d="M2.77777778,6.75 C2.47111111,6.75 2.22222222,7.002 2.22222222,7.3125 C2.22222222,7.623 2.47111111,7.875 2.77777778,7.875 C3.08333333,7.875 3.33333333,7.623 3.33333333,7.3125 C3.33333333,7.002 3.08333333,6.75 2.77777778,6.75" id="Fill-1524" fill="#FFAC01"></path>
                                        <path d="M7.22222222,6.75 C6.91555556,6.75 6.66666667,7.002 6.66666667,7.3125 C6.66666667,7.623 6.91555556,7.875 7.22222222,7.875 C7.52777778,7.875 7.77777778,7.623 7.77777778,7.3125 C7.77777778,7.002 7.52777778,6.75 7.22222222,6.75" id="Fill-1525" fill="#FFAC01"></path>
                                    </g>
                                    <polygon id="Stroke-1311" stroke="#FFAC01" stroke-linecap="round" stroke-linejoin="round" points="11.1111111 18.27 12.2222222 18.27 12.2222222 17.73 11.1111111 17.73"></polygon>
                                    <polygon id="Stroke-1312" stroke="#FFAC01" stroke-linecap="round" stroke-linejoin="round" points="17.7777778 18.27 18.8888889 18.27 18.8888889 17.73 17.7777778 17.73"></polygon>
                                </g>
                            </g>
                            <g id="bus-marker" transform="translate(70.078014, 25.470588)">
                                <g filter="url(#filter-3)">
                                    <path d="M25.5555556,13.4021739 C25.5555556,21.6195652 15,29.25 15,29.25 C15,29.25 4.44444444,21.6195652 4.44444444,13.4021739 C4.44444444,7.24382609 8.84611111,2.25 15,2.25 C21.152716,2.25 25.5555556,7.24382609 25.5555556,13.4021739 L25.5555556,13.4021739 Z" id="Stroke-1521" fill="#FFFFFF"></path>
                                    <g id="Group-2" transform="translate(10.000000, 7.875000)">
                                        <path d="M10,9 L0,9 L0,1.125 C0,0.504 0.55875,0 1.25,0 L8.75,0 C9.44125,0 10,0.504 10,1.125 L10,9 L10,9 Z" id="Stroke-1522" stroke="#FFAC01" fill="#FFEC00" stroke-linecap="round" stroke-linejoin="round"></path>
                                        <polygon id="Stroke-1523" stroke="#FFAC01" stroke-linecap="round" stroke-linejoin="round" points="0 4.5 10 4.5 10 2.25 0 2.25"></polygon>
                                        <path d="M2.77777778,6.75 C2.47111111,6.75 2.22222222,7.002 2.22222222,7.3125 C2.22222222,7.623 2.47111111,7.875 2.77777778,7.875 C3.08333333,7.875 3.33333333,7.623 3.33333333,7.3125 C3.33333333,7.002 3.08333333,6.75 2.77777778,6.75" id="Fill-1524" fill="#FFAC01"></path>
                                        <path d="M7.22222222,6.75 C6.91555556,6.75 6.66666667,7.002 6.66666667,7.3125 C6.66666667,7.623 6.91555556,7.875 7.22222222,7.875 C7.52777778,7.875 7.77777778,7.623 7.77777778,7.3125 C7.77777778,7.002 7.52777778,6.75 7.22222222,6.75" id="Fill-1525" fill="#FFAC01"></path>
                                    </g>
                                    <polygon id="Stroke-1311" stroke="#FFAC01" stroke-linecap="round" stroke-linejoin="round" points="11.1111111 18.27 12.2222222 18.27 12.2222222 17.73 11.1111111 17.73"></polygon>
                                    <polygon id="Stroke-1312" stroke="#FFAC01" stroke-linecap="round" stroke-linejoin="round" points="17.7777778 18.27 18.8888889 18.27 18.8888889 17.73 17.7777778 17.73"></polygon>
                                </g>
                            </g>
                            <g id="bus-marker" transform="translate(58.872340, 99.235294)">
                                <g filter="url(#filter-4)">
                                    <path d="M25.5555556,13.4021739 C25.5555556,21.6195652 15,29.25 15,29.25 C15,29.25 4.44444444,21.6195652 4.44444444,13.4021739 C4.44444444,7.24382609 8.84611111,2.25 15,2.25 C21.152716,2.25 25.5555556,7.24382609 25.5555556,13.4021739 L25.5555556,13.4021739 Z" id="Stroke-1521" fill="#FFFFFF"></path>
                                    <g id="Group-2" transform="translate(10.000000, 7.875000)">
                                        <path d="M10,9 L0,9 L0,1.125 C0,0.504 0.55875,0 1.25,0 L8.75,0 C9.44125,0 10,0.504 10,1.125 L10,9 L10,9 Z" id="Stroke-1522" stroke="#FFAC01" fill="#FFEC00" stroke-linecap="round" stroke-linejoin="round"></path>
                                        <polygon id="Stroke-1523" stroke="#FFAC01" stroke-linecap="round" stroke-linejoin="round" points="0 4.5 10 4.5 10 2.25 0 2.25"></polygon>
                                        <path d="M2.77777778,6.75 C2.47111111,6.75 2.22222222,7.002 2.22222222,7.3125 C2.22222222,7.623 2.47111111,7.875 2.77777778,7.875 C3.08333333,7.875 3.33333333,7.623 3.33333333,7.3125 C3.33333333,7.002 3.08333333,6.75 2.77777778,6.75" id="Fill-1524" fill="#FFAC01"></path>
                                        <path d="M7.22222222,6.75 C6.91555556,6.75 6.66666667,7.002 6.66666667,7.3125 C6.66666667,7.623 6.91555556,7.875 7.22222222,7.875 C7.52777778,7.875 7.77777778,7.623 7.77777778,7.3125 C7.77777778,7.002 7.52777778,6.75 7.22222222,6.75" id="Fill-1525" fill="#FFAC01"></path>
                                    </g>
                                    <polygon id="Stroke-1311" stroke="#FFAC01" stroke-linecap="round" stroke-linejoin="round" points="11.1111111 18.27 12.2222222 18.27 12.2222222 17.73 11.1111111 17.73"></polygon>
                                    <polygon id="Stroke-1312" stroke="#FFAC01" stroke-linecap="round" stroke-linejoin="round" points="17.7777778 18.27 18.8888889 18.27 18.8888889 17.73 17.7777778 17.73"></polygon>
                                </g>
                            </g>
                        </g>
                    </g>
                </g>
            </g>
        </g>
    </g>
</svg>