<?xml version="1.0" encoding="UTF-8"?>
<svg width="167px" height="33px" viewBox="0 0 167 33" version="1.1" xmlns="http://www.w3.org/2000/svg" xmlns:xlink="http://www.w3.org/1999/xlink">
    <!-- Generator: sketchtool 56.2 (101010) - https://sketch.com -->
    <title>1EB3BFFE-1124-457F-8801-BDA6E0C9FF15@1.00x</title>
    <desc>Created with sketchtool.</desc>
    <g id="Page-1" stroke="none" stroke-width="1" fill="none" fill-rule="evenodd">
        <g id="School-Finder" transform="translate(-862.000000, -1207.000000)" fill="#FFFFFF" stroke="#A3D0FA">
            <g id="Neighborhood-Module" transform="translate(0.000000, 740.000000)">
                <g id="map-and-regions" transform="translate(720.000000, 0.000000)">
                    <g id="region---west-of-the-405" transform="translate(133.000000, 348.000000)">
                        <g id="Group-9" transform="translate(0.000000, 119.000000)">
                            <g id="region-label-white">
                                <g id="ribbon-stroke">
                                    <g transform="translate(9.000000, 0.000000)">
                                        <path d="M17.1094,6.9151 C14.2424,6.8971 13.1924,7.0081 10.3284,7.0491 C7.1724,7.0951 4.0064,6.8741 0.8484,6.87509662 C2.0604,9.4401 7.8774,19.8891 7.8774,19.8891 C7.8774,19.8891 5.3634,24.3431 4.8314,25.2921 C3.5044,27.6541 2.1794,30.0151 0.8534,32.3761 C5.0134,32.3761 9.1634,32.2091 13.3164,32.3891 C14.6894,32.4481 16.0654,32.4301 17.4414,32.4101 C18.8064,32.3841 20.1544,32.3491 21.4914,32.3831 C24.5454,32.4631 22.8594,32.4361 25.9334,32.3201 C25.9334,32.3201 25.9374,30.6811 25.9864,29.0641 C26.0344,27.4481 26.1044,25.8411 26.1044,25.8411" id="Stroke-1"></path>
                                        <path d="M140.9834,25.7413 C140.9834,25.7413 140.9904,27.3303 141.0054,28.9593 C141.0224,30.5873 141.0494,32.2593 141.0494,32.2593 C144.2024,32.3833 142.4644,32.4023 145.6244,32.3483 C147.0074,32.3243 148.3924,32.3752966 149.7704,32.4023 C151.1514,32.4293 152.5264,32.4483 153.8994,32.3883 C158.0524,32.2093 162.2034,32.3763 166.3624,32.3763 C165.0374,30.0153 163.7114,27.6543 162.3854,25.2923 C161.8524,24.3433 159.3394,19.8883 159.3394,19.8883 C159.3394,19.8883 165.1564,9.4403 166.3674,6.87529662 C163.2094,6.8743 160.0434,7.0953 156.8874,7.0493 C154.0234,7.0083 152.9734,6.8973 150.1064,6.9153" id="Stroke-3"></path>
                                        <path d="M111.7549,26.0211 C112.7219,26.0211 113.9009,26.0201 115.2399,26.0201 C116.5799,26.0181 118.0729,26.0011 119.6649,25.9701 C120.4609,25.9551 121.2819,25.9381 122.1229,25.9221 C122.9629,25.9071 123.8239,25.8941 124.6999,25.8861 C125.5759,25.8791 126.4689,25.8811 127.3689,25.8911 C128.2709,25.9001 129.1799,25.9161 130.0879,25.9341 C130.9969,25.9531 131.9039,25.9711 132.8009,25.9801 C133.6969,25.9901 134.5809,25.9851 135.4449,25.9711 C136.3099,25.9491 137.1579,25.9281 137.9859,25.9121 C139.4349,25.8841 140.8209,25.8741 142.1089,25.8841 C143.3989,25.8941 144.5879,25.9181 145.6379,25.9441 C147.7379,25.9951 149.2719,26.0191 149.9479,26.0221 C149.9479,24.9591 149.9499,23.8961 149.9539,22.8341 C149.9799,15.3931 150.0779,7.9531 150.0459,0.5121 C144.9999,0.6321 139.9539,0.7921 134.9059,0.7561 C130.7479,0.7271 126.6079,0.5081 122.4549,0.5961 C121.6229,0.6141 120.7879,0.6431 119.9249,0.6741 C118.8399,0.7131 117.7249,0.7151 116.5969,0.6931 C115.4689,0.6711 114.3469,0.6401 113.2529,0.6161 C112.1589,0.5921 111.1099,0.5861 110.1089,0.6041 C109.1079,0.6231 108.1379,0.6551 107.1799,0.6931 C106.2229,0.7311 105.2619,0.7681 104.2789,0.7941 C103.2969,0.8211 102.2779,0.8301 101.2399,0.8271 C100.1999,0.8231 99.1599,0.8241 98.1179,0.8321 C97.0769,0.8391 96.0339,0.8551 94.9899,0.8821 C94.1169,0.9041 93.0779,0.9201 91.9109,0.9331 C90.7439,0.9401 89.4489,0.9431 88.0649,0.9301 C86.6799,0.9171 85.2059,0.8791 83.6789,0.8391 C82.1519,0.8001 80.5729,0.7711 78.9809,0.7741 C78.1849,0.7761 77.3849,0.7851 76.5859,0.7991 C75.7869,0.8121 74.9889,0.8291 74.1979,0.8451 C72.6139,0.8781 71.0549,0.9021 69.5579,0.9061 C68.0599,0.8981 66.6239,0.8921 65.2869,0.8871 C61.2779,0.8731 58.1649,0.8731 56.9719,0.9171 C56.4179,0.9371 55.6589,0.9501 54.7459,0.9571 C53.8329,0.9641 52.7669,0.9651 51.5979,0.9641 C50.4509,0.9791 49.2459,0.9831 48.0269,0.9731 C46.8099,0.9631 45.5479,0.9421 44.2469,0.9171 C42.9459,0.8911 41.5639,0.8631 40.1599,0.8371 C38.7569,0.8111 37.3709,0.7901 36.1059,0.7791 C34.8409,0.7691 33.7219,0.7701 32.7979,0.7671 C31.8779,0.7661 31.1219,0.7611 30.5719,0.7601 C26.1039,0.7561 21.6369,0.6191 17.1709,0.5121 C17.1379,7.9531 17.2369,15.3931 17.2619,22.8341 C17.2659,23.8961 17.2679,24.9591 17.2679,26.0221 C18.2249,26.0211 19.1789,26.0201 20.1249,26.0171 C21.0699,26.0131 22.0099,26.0091 22.9489,26.0061 C23.8879,26.0041 24.8299,26.0061 25.7799,26.0141 C26.7309,26.0221 27.6889,26.0371 28.6549,26.0601 C29.6219,26.0821 30.5939,26.1101 31.5669,26.1421 C32.5389,26.1731 33.5099,26.2071 34.4739,26.2401 C34.9619,26.2571 35.6879,26.2701 36.6049,26.2801 C37.5229,26.2911 38.6319,26.2981 39.8859,26.3041 C41.1389,26.3091 42.5349,26.3021 44.0259,26.2871 C45.5179,26.2711 47.1039,26.2511 48.7339,26.2371 C50.3649,26.2221 52.0429,26.2281 53.7159,26.2431 C55.3899,26.2581 57.0599,26.2761 58.6779,26.2821 C60.2959,26.2881 61.8619,26.2861 63.3269,26.2821 C67.7219,26.2641 71.2079,26.2431 72.4639,26.2271 C77.0619,26.1681 81.6259,26.1991 86.2219,26.2791 C93.9949,26.4161 101.7779,26.0281 109.5539,26.0221 C110.0369,26.0221 110.7889,26.0211 111.7549,26.0211 Z" id="Stroke-5"></path>
                                    </g>
                                </g>
                            </g>
                        </g>
                    </g>
                </g>
            </g>
        </g>
    </g>
</svg>